<?xml version="1.0" encoding="UTF-8" standalone="no"?>
<!-- Created with Inkscape (http://www.inkscape.org/) -->

<svg
   xmlns:dc="http://purl.org/dc/elements/1.1/"
   xmlns:cc="http://creativecommons.org/ns#"
   xmlns:rdf="http://www.w3.org/1999/02/22-rdf-syntax-ns#"
   xmlns:svg="http://www.w3.org/2000/svg"
   xmlns="http://www.w3.org/2000/svg"
   xmlns:sodipodi="http://sodipodi.sourceforge.net/DTD/sodipodi-0.dtd"
   xmlns:inkscape="http://www.inkscape.org/namespaces/inkscape"
   width="249.6346"
   height="171.94507"
   viewBox="0 0 249.63462 171.94507"
   id="svg2"
   version="1.1"
   inkscape:version="0.91 r13725"
   sodipodi:docname="Logo with url.svg"
   inkscape:export-filename="/Users/Nick/Desktop/Github/NothingButAdsAllTheAds.github.io/Branding/Logo with url.png"
   inkscape:export-xdpi="721.27686"
   inkscape:export-ydpi="721.27686">
  <defs
     id="defs4" />
  <sodipodi:namedview
     id="base"
     pagecolor="#ffffff"
     bordercolor="#666666"
     borderopacity="1.0"
     inkscape:pageopacity="0.0"
     inkscape:pageshadow="2"
     inkscape:zoom="1.979899"
     inkscape:cx="130.45023"
     inkscape:cy="120.27257"
     inkscape:document-units="px"
     inkscape:current-layer="layer1"
     showgrid="false"
     inkscape:window-width="1440"
     inkscape:window-height="855"
     inkscape:window-x="0"
     inkscape:window-y="1"
     inkscape:window-maximized="1"
     fit-margin-top="0"
     fit-margin-left="0"
     fit-margin-right="0"
     fit-margin-bottom="0"
     units="px"
     inkscape:snap-page="true" />
  <metadata
     id="metadata7">
    <rdf:RDF>
      <cc:Work
         rdf:about="">
        <dc:format>image/svg+xml</dc:format>
        <dc:type
           rdf:resource="http://purl.org/dc/dcmitype/StillImage" />
        <dc:title />
      </cc:Work>
    </rdf:RDF>
  </metadata>
  <g
     inkscape:label="Layer 1"
     inkscape:groupmode="layer"
     id="layer1"
     transform="translate(-747.8613,-371.99648)">
    <g
       id="g4223">
      <rect
         y="384.84253"
         x="748.87146"
         height="86.368042"
         width="113.64216"
         id="rect4165"
         style="opacity:1;fill:#ffffff;fill-opacity:1;stroke:none;stroke-opacity:1" />
      <g
         transform="translate(0,-8.7975804e-6)"
         id="g4216">
        <path
           style="opacity:1;fill:#ff0000;fill-opacity:1;stroke:none;stroke-opacity:1"
           d="m 747.8613,371.99647 0,115.71247 116.69803,0 0,-115.71247 -116.69803,0 z m 19.09198,28.52756 6.84241,0 21.75786,45.40337 0,-45.40337 6.7697,0 0,58.65735 -6.84241,0 -21.68515,-45.20141 0,45.20141 -6.84241,0 0,-58.65735 z m 47.16176,0 15.43515,0 c 4.93431,0 8.63903,1.30206 11.11859,3.90726 2.50434,2.6052 3.75646,6.51405 3.75646,11.72447 0,2.73949 -0.63116,5.15682 -1.89573,7.25172 -1.26457,2.0949 -2.97528,3.71909 -5.13249,4.87397 2.47956,0.80573 4.43756,2.45699 5.8757,4.95476 1.46293,2.49777 2.19464,5.50792 2.19464,9.02628 0,5.26412 -1.33707,9.40037 -4.01497,12.40844 -2.65312,3.00806 -6.44818,4.51045 -11.38249,4.51045 l -15.95486,0 0,-58.65735 z m 6.80472,6.36579 0,18.65305 8.74084,0 c 2.35558,0 4.25176,-0.8608 5.68989,-2.5797 1.46294,-1.71889 2.19464,-4.00088 2.19464,-6.8478 0,-3.22293 -0.65697,-5.55906 -1.97113,-7.00937 -1.31417,-1.47718 -3.3211,-2.21618 -6.02381,-2.21618 l -8.63043,0 z m 0,24.85727 0,21.10889 9.29825,0 c 2.57873,0 4.62437,-0.91225 6.1369,-2.73858 1.51253,-1.85319 2.27003,-4.44377 2.27003,-7.77413 0,-7.06358 -2.75153,-10.59618 -8.25613,-10.59618 l -9.44905,0 z"
           id="rect4136"
           inkscape:connector-curvature="0" />
        <g
           style="font-style:normal;font-weight:normal;font-size:40px;line-height:125%;font-family:sans-serif;letter-spacing:0px;word-spacing:0px;fill:#000000;fill-opacity:1;stroke:none;stroke-width:1px;stroke-linecap:butt;stroke-linejoin:miter;stroke-opacity:1"
           id="text4144"
           transform="matrix(1.3787155,0,0,1.3787155,509.78669,-259.80686)">
          <path
             d="m 292.11453,510.83215 -13.81347,0 -3.17261,10.66895 -5.27832,0 13.16772,-40.87891 4.40796,0 13.1958,40.87891 -5.27832,0 -3.22876,-10.66895 z m -12.46582,-4.43603 11.14624,0 -5.58716,-18.58643 -5.55908,18.58643 z"
             style="font-style:normal;font-variant:normal;font-weight:normal;font-stretch:normal;font-size:57.5px;font-family:'Roboto Condensed';-inkscape-font-specification:'Roboto Condensed, '"
             id="path4693"
             inkscape:connector-curvature="0" />
          <path
             d="m 304.43997,504.93616 q 0,-7.01905 2.61109,-10.69702 2.63916,-3.67798 7.55249,-3.67798 4.3518,0 6.79443,3.53759 l 0,-15.72265 4.96948,0 0,43.125 -4.54834,0 -0.25268,-3.25684 q -2.44263,3.81836 -6.99097,3.81836 -4.7168,0 -7.41211,-3.6499 -2.66724,-3.67798 -2.72339,-10.36011 l 0,-3.11645 z m 4.96948,2.83569 q 0,5.10986 1.51612,7.52441 1.51611,2.38648 4.9414,2.38648 3.70606,0 5.53101,-3.73413 l 0,-15.32959 q -1.90918,-3.6499 -5.50293,-3.6499 -3.42529,0 -4.94141,2.41455 -1.51611,2.38647 -1.54419,7.35595 l 0,3.03223 z"
             style="font-style:normal;font-variant:normal;font-weight:normal;font-stretch:normal;font-size:57.5px;font-family:'Roboto Condensed';-inkscape-font-specification:'Roboto Condensed, '"
             id="path4695"
             inkscape:connector-curvature="0" />
          <path
             d="m 348.77225,513.724 q 0,-1.60034 -1.20728,-2.75147 -1.20727,-1.15112 -4.66064,-2.69531 -4.0149,-1.65649 -5.67139,-2.83569 -1.62842,-1.1792 -2.44263,-2.66724 -0.81421,-1.51611 -0.81421,-3.59375 0,-3.70605 2.69532,-6.14868 2.72339,-2.4707 6.93481,-2.4707 4.43604,0 7.13135,2.58301 2.69531,2.583 2.69531,6.62597 l -4.9414,0 q 0,-2.04956 -1.37574,-3.48144 -1.37573,-1.45996 -3.50952,-1.45996 -2.18994,0 -3.45337,1.15112 -1.23535,1.12305 -1.23535,3.03222 0,1.51612 0.89844,2.44263 0.92651,0.92652 4.40796,2.44263 5.531,2.16186 7.52441,4.2395 1.99341,2.04956 1.99341,5.22217 0,3.95874 -2.72339,6.34521 -2.72339,2.3584 -7.2998,2.3584 -4.74488,0 -7.69287,-2.72339 -2.948,-2.72339 -2.948,-6.90673 l 4.99756,0 q 0.0842,2.52685 1.54419,3.95874 1.45996,1.43188 4.09912,1.43188 2.4707,0 3.7622,-1.09497 1.29151,-1.12305 1.29151,-3.00415 z"
             style="font-style:normal;font-variant:normal;font-weight:normal;font-stretch:normal;font-size:57.5px;font-family:'Roboto Condensed';-inkscape-font-specification:'Roboto Condensed, '"
             id="path4697"
             inkscape:connector-curvature="0" />
        </g>
      </g>
      <path
         inkscape:connector-curvature="0"
         id="path4168"
         d="m 747.8613,498.99417 249.6346,0"
         style="fill:none;fill-rule:evenodd;stroke:#d3d3d3;stroke-width:1.37871563;stroke-linecap:butt;stroke-linejoin:miter;stroke-miterlimit:4;stroke-dasharray:none;stroke-opacity:1" />
      <text
         sodipodi:linespacing="125%"
         id="text4212"
         y="536.63263"
         x="745.59637"
         style="font-style:normal;font-weight:normal;font-size:35.13763046px;line-height:125%;font-family:sans-serif;letter-spacing:0px;word-spacing:0px;fill:#000000;fill-opacity:1;stroke:none;stroke-width:1px;stroke-linecap:butt;stroke-linejoin:miter;stroke-opacity:1"
         xml:space="preserve"><tspan
           style="font-style:normal;font-variant:normal;font-weight:normal;font-stretch:normal;font-family:'Roboto Condensed';-inkscape-font-specification:'Roboto Condensed, '"
           y="536.63263"
           x="745.59637"
           id="tspan4214"
           sodipodi:role="line">nothingbutads.org</tspan></text>
    </g>
  </g>
</svg>
