<?xml version="1.0" encoding="UTF-8" standalone="no"?>
<!-- Created with Inkscape (http://www.inkscape.org/) -->

<svg
   xmlns:dc="http://purl.org/dc/elements/1.1/"
   xmlns:cc="http://creativecommons.org/ns#"
   xmlns:rdf="http://www.w3.org/1999/02/22-rdf-syntax-ns#"
   xmlns:svg="http://www.w3.org/2000/svg"
   xmlns="http://www.w3.org/2000/svg"
   xmlns:sodipodi="http://sodipodi.sourceforge.net/DTD/sodipodi-0.dtd"
   xmlns:inkscape="http://www.inkscape.org/namespaces/inkscape"
   width="51.100052mm"
   height="23.686508mm"
   viewBox="0 0 181.06318 83.928572"
   id="svg2"
   version="1.1"
   inkscape:version="0.91 r13725"
   sodipodi:docname="Logo.svg">
  <defs
     id="defs4" />
  <sodipodi:namedview
     id="base"
     pagecolor="#ffffff"
     bordercolor="#666666"
     borderopacity="1.0"
     inkscape:pageopacity="0.0"
     inkscape:pageshadow="2"
     inkscape:zoom="2.8"
     inkscape:cx="16.641693"
     inkscape:cy="42.183975"
     inkscape:document-units="px"
     inkscape:current-layer="layer1"
     showgrid="false"
     inkscape:window-width="1440"
     inkscape:window-height="855"
     inkscape:window-x="0"
     inkscape:window-y="1"
     inkscape:window-maximized="1"
     fit-margin-top="0"
     fit-margin-left="0"
     fit-margin-right="0"
     fit-margin-bottom="0" />
  <metadata
     id="metadata7">
    <rdf:RDF>
      <cc:Work
         rdf:about="">
        <dc:format>image/svg+xml</dc:format>
        <dc:type
           rdf:resource="http://purl.org/dc/dcmitype/StillImage" />
        <dc:title />
      </cc:Work>
    </rdf:RDF>
  </metadata>
  <g
     inkscape:label="Layer 1"
     inkscape:groupmode="layer"
     id="layer1"
     transform="translate(-172.67856,-458.25504)">
    <rect
       style="opacity:1;fill:#ffffff;fill-opacity:1;stroke:none;stroke-opacity:1"
       id="rect4210"
       width="72.5"
       height="66.071426"
       x="177.32141"
       y="466.82648" />
    <path
       style="opacity:1;fill:#ff0000;fill-opacity:1;stroke:none;stroke-opacity:1"
       d="M 0 0 L 0 83.927734 L 84.642578 83.927734 L 84.642578 0 L 0 0 z M 13.847656 20.691406 L 18.810547 20.691406 L 34.591797 53.623047 L 34.591797 20.691406 L 39.501953 20.691406 L 39.501953 63.236328 L 34.539062 63.236328 L 18.810547 30.451172 L 18.810547 63.236328 L 13.847656 63.236328 L 13.847656 20.691406 z M 48.054688 20.691406 L 59.25 20.691406 C 62.828913 20.691406 65.516 21.635804 67.314453 23.525391 C 69.130886 25.414976 70.039062 28.250117 70.039062 32.029297 C 70.039062 34.016283 69.581276 35.769604 68.664062 37.289062 C 67.746857 38.808522 66.506059 39.986566 64.941406 40.824219 C 66.739859 41.408625 68.160025 42.606302 69.203125 44.417969 C 70.264205 46.229635 70.794922 48.412931 70.794922 50.964844 C 70.794922 54.782976 69.825132 57.783051 67.882812 59.964844 C 65.958474 62.146629 63.205866 63.236328 59.626953 63.236328 L 48.054688 63.236328 L 48.054688 20.691406 z M 52.990234 25.308594 L 52.990234 38.837891 L 59.330078 38.837891 C 61.038611 38.837891 62.413938 38.213537 63.457031 36.966797 C 64.518118 35.720064 65.048828 34.064913 65.048828 32 C 65.048828 29.662367 64.572321 27.967948 63.619141 26.916016 C 62.665961 25.844602 61.210307 25.308594 59.25 25.308594 L 52.990234 25.308594 z M 52.990234 43.337891 L 52.990234 58.648438 L 59.734375 58.648438 C 61.604762 58.648438 63.088494 57.986769 64.185547 56.662109 C 65.282607 55.317971 65.832031 53.43899 65.832031 51.023438 C 65.832031 45.900131 63.83631 43.337891 59.84375 43.337891 L 52.990234 43.337891 z "
       transform="translate(172.67856,458.25504)"
       id="rect4136" />
    <g
       style="font-style:normal;font-weight:normal;font-size:40px;line-height:125%;font-family:sans-serif;letter-spacing:0px;word-spacing:0px;fill:#000000;fill-opacity:1;stroke:none;stroke-width:1px;stroke-linecap:butt;stroke-linejoin:miter;stroke-opacity:1"
       id="text4144">
      <path
         d="m 292.11453,510.83215 -13.81347,0 -3.17261,10.66895 -5.27832,0 13.16772,-40.87891 4.40796,0 13.1958,40.87891 -5.27832,0 -3.22876,-10.66895 z m -12.46582,-4.43603 11.14624,0 -5.58716,-18.58643 -5.55908,18.58643 z"
         style="font-style:normal;font-variant:normal;font-weight:normal;font-stretch:normal;font-size:57.5px;font-family:'Roboto Condensed';-inkscape-font-specification:'Roboto Condensed, '"
         id="path4693" />
      <path
         d="m 304.43997,504.93616 q 0,-7.01905 2.61109,-10.69702 2.63916,-3.67798 7.55249,-3.67798 4.3518,0 6.79443,3.53759 l 0,-15.72265 4.96948,0 0,43.125 -4.54834,0 -0.25268,-3.25684 q -2.44263,3.81836 -6.99097,3.81836 -4.7168,0 -7.41211,-3.6499 -2.66724,-3.67798 -2.72339,-10.36011 l 0,-3.11645 z m 4.96948,2.83569 q 0,5.10986 1.51612,7.52441 1.51611,2.38648 4.9414,2.38648 3.70606,0 5.53101,-3.73413 l 0,-15.32959 q -1.90918,-3.6499 -5.50293,-3.6499 -3.42529,0 -4.94141,2.41455 -1.51611,2.38647 -1.54419,7.35595 l 0,3.03223 z"
         style="font-style:normal;font-variant:normal;font-weight:normal;font-stretch:normal;font-size:57.5px;font-family:'Roboto Condensed';-inkscape-font-specification:'Roboto Condensed, '"
         id="path4695" />
      <path
         d="m 348.77225,513.724 q 0,-1.60034 -1.20728,-2.75147 -1.20727,-1.15112 -4.66064,-2.69531 -4.0149,-1.65649 -5.67139,-2.83569 -1.62842,-1.1792 -2.44263,-2.66724 -0.81421,-1.51611 -0.81421,-3.59375 0,-3.70605 2.69532,-6.14868 2.72339,-2.4707 6.93481,-2.4707 4.43604,0 7.13135,2.58301 2.69531,2.583 2.69531,6.62597 l -4.9414,0 q 0,-2.04956 -1.37574,-3.48144 -1.37573,-1.45996 -3.50952,-1.45996 -2.18994,0 -3.45337,1.15112 -1.23535,1.12305 -1.23535,3.03222 0,1.51612 0.89844,2.44263 0.92651,0.92652 4.40796,2.44263 5.531,2.16186 7.52441,4.2395 1.99341,2.04956 1.99341,5.22217 0,3.95874 -2.72339,6.34521 -2.72339,2.3584 -7.2998,2.3584 -4.74488,0 -7.69287,-2.72339 -2.948,-2.72339 -2.948,-6.90673 l 4.99756,0 q 0.0842,2.52685 1.54419,3.95874 1.45996,1.43188 4.09912,1.43188 2.4707,0 3.7622,-1.09497 1.29151,-1.12305 1.29151,-3.00415 z"
         style="font-style:normal;font-variant:normal;font-weight:normal;font-stretch:normal;font-size:57.5px;font-family:'Roboto Condensed';-inkscape-font-specification:'Roboto Condensed, '"
         id="path4697" />
    </g>
  </g>
</svg>
