<?xml version="1.0" encoding="UTF-8" standalone="no"?>
<!-- Created with Inkscape (http://www.inkscape.org/) -->

<svg
   xmlns:dc="http://purl.org/dc/elements/1.1/"
   xmlns:cc="http://creativecommons.org/ns#"
   xmlns:rdf="http://www.w3.org/1999/02/22-rdf-syntax-ns#"
   xmlns:svg="http://www.w3.org/2000/svg"
   xmlns="http://www.w3.org/2000/svg"
   xmlns:sodipodi="http://sodipodi.sourceforge.net/DTD/sodipodi-0.dtd"
   xmlns:inkscape="http://www.inkscape.org/namespaces/inkscape"
   width="51.100052mm"
   height="23.686508mm"
   viewBox="0 0 181.06318 83.928572"
   id="svg2"
   version="1.1"
   inkscape:version="0.91 r13725"
   sodipodi:docname="Logo.svg">
  <defs
     id="defs4" />
  <sodipodi:namedview
     id="base"
     pagecolor="#ffffff"
     bordercolor="#666666"
     borderopacity="1.0"
     inkscape:pageopacity="0.0"
     inkscape:pageshadow="2"
     inkscape:zoom="2.8"
     inkscape:cx="44.677407"
     inkscape:cy="42.183975"
     inkscape:document-units="px"
     inkscape:current-layer="layer1"
     showgrid="false"
     inkscape:window-width="1440"
     inkscape:window-height="855"
     inkscape:window-x="0"
     inkscape:window-y="1"
     inkscape:window-maximized="1"
     fit-margin-top="0"
     fit-margin-left="0"
     fit-margin-right="0"
     fit-margin-bottom="0" />
  <metadata
     id="metadata7">
    <rdf:RDF>
      <cc:Work
         rdf:about="">
        <dc:format>image/svg+xml</dc:format>
        <dc:type
           rdf:resource="http://purl.org/dc/dcmitype/StillImage" />
        <dc:title />
      </cc:Work>
    </rdf:RDF>
  </metadata>
  <g
     inkscape:label="Layer 1"
     inkscape:groupmode="layer"
     id="layer1"
     transform="translate(-172.67856,-458.25504)">
    <rect
       style="opacity:1;fill:#ff0000;fill-opacity:1;stroke:none;stroke-opacity:1"
       id="rect4136"
       width="84.642853"
       height="83.928574"
       x="-257.32141"
       y="458.25504"
       transform="scale(-1,1)" />
    <g
       transform="scale(0.96084121,1.0407547)"
       style="font-style:normal;font-weight:normal;font-size:57.5px;line-height:125%;font-family:sans-serif;letter-spacing:0px;word-spacing:0px;fill:#000000;fill-opacity:1;stroke:none;stroke-width:1px;stroke-linecap:butt;stroke-linejoin:miter;stroke-opacity:1"
       id="text4138">
      <path
         d="m 220.82829,501.0708 -5.16601,0 -16.36841,-31.50146 0,31.50146 -5.16602,0 0,-40.87891 5.16602,0 16.42456,31.64185 0,-31.64185 5.10986,0 0,40.87891 z"
         style="font-style:normal;font-variant:normal;font-weight:normal;font-stretch:normal;font-size:57.5px;font-family:'Roboto Condensed';-inkscape-font-specification:'Roboto Condensed, ';fill:#ffffff"
         id="path4700" />
      <path
         d="m 229.72844,501.0708 0,-40.87891 11.65161,0 q 5.58716,0 8.39478,2.72339 2.83569,2.72339 2.83569,8.17017 0,2.86377 -1.43189,5.05371 -1.43188,2.18994 -3.87451,3.39722 2.80762,0.84228 4.43604,3.45337 1.65649,2.61108 1.65649,6.28906 0,5.50293 -3.03222,8.64746 -3.00415,3.14453 -8.59131,3.14453 l -12.04468,0 z m 5.13794,-19.11987 0,14.71191 7.01904,0 q 2.91992,0 4.63257,-1.90918 1.71265,-1.93725 1.71265,-5.4187 0,-7.38403 -6.23291,-7.38403 l -7.13135,0 z m 0,-4.32373 6.5979,0 q 2.66724,0 4.29565,-1.79688 1.6565,-1.79687 1.6565,-4.77295 0,-3.36914 -1.48804,-4.88525 -1.48804,-1.54419 -4.54834,-1.54419 l -6.51367,0 0,12.99927 z"
         style="font-style:normal;font-variant:normal;font-weight:normal;font-stretch:normal;font-size:57.5px;font-family:'Roboto Condensed';-inkscape-font-specification:'Roboto Condensed, ';fill:#ffffff"
         id="path4702" />
    </g>
    <g
       style="font-style:normal;font-weight:normal;font-size:40px;line-height:125%;font-family:sans-serif;letter-spacing:0px;word-spacing:0px;fill:#000000;fill-opacity:1;stroke:none;stroke-width:1px;stroke-linecap:butt;stroke-linejoin:miter;stroke-opacity:1"
       id="text4144">
      <path
         d="m 292.11453,510.83215 -13.81347,0 -3.17261,10.66895 -5.27832,0 13.16772,-40.87891 4.40796,0 13.1958,40.87891 -5.27832,0 -3.22876,-10.66895 z m -12.46582,-4.43603 11.14624,0 -5.58716,-18.58643 -5.55908,18.58643 z"
         style="font-style:normal;font-variant:normal;font-weight:normal;font-stretch:normal;font-size:57.5px;font-family:'Roboto Condensed';-inkscape-font-specification:'Roboto Condensed, '"
         id="path4693" />
      <path
         d="m 304.43997,504.93616 q 0,-7.01905 2.61109,-10.69702 2.63916,-3.67798 7.55249,-3.67798 4.3518,0 6.79443,3.53759 l 0,-15.72265 4.96948,0 0,43.125 -4.54834,0 -0.25268,-3.25684 q -2.44263,3.81836 -6.99097,3.81836 -4.7168,0 -7.41211,-3.6499 -2.66724,-3.67798 -2.72339,-10.36011 l 0,-3.11645 z m 4.96948,2.83569 q 0,5.10986 1.51612,7.52441 1.51611,2.38648 4.9414,2.38648 3.70606,0 5.53101,-3.73413 l 0,-15.32959 q -1.90918,-3.6499 -5.50293,-3.6499 -3.42529,0 -4.94141,2.41455 -1.51611,2.38647 -1.54419,7.35595 l 0,3.03223 z"
         style="font-style:normal;font-variant:normal;font-weight:normal;font-stretch:normal;font-size:57.5px;font-family:'Roboto Condensed';-inkscape-font-specification:'Roboto Condensed, '"
         id="path4695" />
      <path
         d="m 348.77225,513.724 q 0,-1.60034 -1.20728,-2.75147 -1.20727,-1.15112 -4.66064,-2.69531 -4.0149,-1.65649 -5.67139,-2.83569 -1.62842,-1.1792 -2.44263,-2.66724 -0.81421,-1.51611 -0.81421,-3.59375 0,-3.70605 2.69532,-6.14868 2.72339,-2.4707 6.93481,-2.4707 4.43604,0 7.13135,2.58301 2.69531,2.583 2.69531,6.62597 l -4.9414,0 q 0,-2.04956 -1.37574,-3.48144 -1.37573,-1.45996 -3.50952,-1.45996 -2.18994,0 -3.45337,1.15112 -1.23535,1.12305 -1.23535,3.03222 0,1.51612 0.89844,2.44263 0.92651,0.92652 4.40796,2.44263 5.531,2.16186 7.52441,4.2395 1.99341,2.04956 1.99341,5.22217 0,3.95874 -2.72339,6.34521 -2.72339,2.3584 -7.2998,2.3584 -4.74488,0 -7.69287,-2.72339 -2.948,-2.72339 -2.948,-6.90673 l 4.99756,0 q 0.0842,2.52685 1.54419,3.95874 1.45996,1.43188 4.09912,1.43188 2.4707,0 3.7622,-1.09497 1.29151,-1.12305 1.29151,-3.00415 z"
         style="font-style:normal;font-variant:normal;font-weight:normal;font-stretch:normal;font-size:57.5px;font-family:'Roboto Condensed';-inkscape-font-specification:'Roboto Condensed, '"
         id="path4697" />
    </g>
  </g>
</svg>
