<?xml version="1.0" encoding="UTF-8" standalone="no"?>
<!-- Created with Inkscape (http://www.inkscape.org/) -->

<svg
   xmlns:dc="http://purl.org/dc/elements/1.1/"
   xmlns:cc="http://creativecommons.org/ns#"
   xmlns:rdf="http://www.w3.org/1999/02/22-rdf-syntax-ns#"
   xmlns:svg="http://www.w3.org/2000/svg"
   xmlns="http://www.w3.org/2000/svg"
   xmlns:sodipodi="http://sodipodi.sourceforge.net/DTD/sodipodi-0.dtd"
   xmlns:inkscape="http://www.inkscape.org/namespaces/inkscape"
   width="249.6346"
   height="171.94507"
   viewBox="0 0 249.63462 171.94507"
   id="svg2"
   version="1.1"
   inkscape:version="0.91 r13725"
   sodipodi:docname="Logo with url.svg">
  <defs
     id="defs4" />
  <sodipodi:namedview
     id="base"
     pagecolor="#ffffff"
     bordercolor="#666666"
     borderopacity="1.0"
     inkscape:pageopacity="0.0"
     inkscape:pageshadow="2"
     inkscape:zoom="1.4"
     inkscape:cx="3.3707177"
     inkscape:cy="-0.94573853"
     inkscape:document-units="px"
     inkscape:current-layer="layer1"
     showgrid="false"
     inkscape:window-width="1440"
     inkscape:window-height="855"
     inkscape:window-x="0"
     inkscape:window-y="1"
     inkscape:window-maximized="1"
     fit-margin-top="0"
     fit-margin-left="0"
     fit-margin-right="0"
     fit-margin-bottom="0"
     units="px"
     inkscape:snap-page="true" />
  <metadata
     id="metadata7">
    <rdf:RDF>
      <cc:Work
         rdf:about="">
        <dc:format>image/svg+xml</dc:format>
        <dc:type
           rdf:resource="http://purl.org/dc/dcmitype/StillImage" />
        <dc:title></dc:title>
      </cc:Work>
    </rdf:RDF>
  </metadata>
  <g
     inkscape:label="Layer 1"
     inkscape:groupmode="layer"
     id="layer1"
     transform="translate(-747.8613,-371.99648)">
    <g
       id="g41940">
      <g
         id="g41916">
        <path
           style="opacity:1;fill:#ff0000;fill-opacity:1;stroke:none;stroke-opacity:1"
           d="m 747.8613,371.99647 0,115.71247 116.69803,0 0,-115.71247 -116.69803,0 z m 19.09198,28.52756 6.84241,0 21.75786,45.40337 0,-45.40337 6.7697,0 0,58.65735 -6.84241,0 -21.68515,-45.20141 0,45.20141 -6.84241,0 0,-58.65735 z m 47.16176,0 15.43515,0 c 4.93431,0 8.63903,1.30206 11.11859,3.90726 2.50434,2.6052 3.75646,6.51405 3.75646,11.72447 0,2.73949 -0.63116,5.15682 -1.89573,7.25172 -1.26457,2.0949 -2.97528,3.71909 -5.13249,4.87397 2.47956,0.80573 4.43756,2.45699 5.8757,4.95476 1.46293,2.49777 2.19464,5.50792 2.19464,9.02628 0,5.26412 -1.33707,9.40037 -4.01497,12.40844 -2.65312,3.00806 -6.44818,4.51045 -11.38249,4.51045 l -15.95486,0 0,-58.65735 z m 6.80472,6.36579 0,18.65305 8.74084,0 c 2.35558,0 4.25176,-0.8608 5.68989,-2.5797 1.46294,-1.71889 2.19464,-4.00088 2.19464,-6.8478 0,-3.22293 -0.65697,-5.55906 -1.97113,-7.00937 -1.31417,-1.47718 -3.3211,-2.21618 -6.02381,-2.21618 l -8.63043,0 z m 0,24.85727 0,21.10889 9.29825,0 c 2.57873,0 4.62437,-0.91225 6.1369,-2.73858 1.51253,-1.85319 2.27003,-4.44377 2.27003,-7.77413 0,-7.06358 -2.75153,-10.59618 -8.25613,-10.59618 l -9.44905,0 z"
           id="rect4136"
           inkscape:connector-curvature="0" />
        <g
           style="font-style:normal;font-weight:normal;font-size:40px;line-height:125%;font-family:sans-serif;letter-spacing:0px;word-spacing:0px;fill:#000000;fill-opacity:1;stroke:none;stroke-width:1px;stroke-linecap:butt;stroke-linejoin:miter;stroke-opacity:1"
           id="text4144"
           transform="matrix(1.3787155,0,0,1.3787155,509.78669,-259.80686)">
          <path
             d="m 292.11453,510.83215 -13.81347,0 -3.17261,10.66895 -5.27832,0 13.16772,-40.87891 4.40796,0 13.1958,40.87891 -5.27832,0 -3.22876,-10.66895 z m -12.46582,-4.43603 11.14624,0 -5.58716,-18.58643 -5.55908,18.58643 z"
             style="font-style:normal;font-variant:normal;font-weight:normal;font-stretch:normal;font-size:57.5px;font-family:'Roboto Condensed';-inkscape-font-specification:'Roboto Condensed, '"
             id="path4693"
             inkscape:connector-curvature="0" />
          <path
             d="m 304.43997,504.93616 q 0,-7.01905 2.61109,-10.69702 2.63916,-3.67798 7.55249,-3.67798 4.3518,0 6.79443,3.53759 l 0,-15.72265 4.96948,0 0,43.125 -4.54834,0 -0.25268,-3.25684 q -2.44263,3.81836 -6.99097,3.81836 -4.7168,0 -7.41211,-3.6499 -2.66724,-3.67798 -2.72339,-10.36011 l 0,-3.11645 z m 4.96948,2.83569 q 0,5.10986 1.51612,7.52441 1.51611,2.38648 4.9414,2.38648 3.70606,0 5.53101,-3.73413 l 0,-15.32959 q -1.90918,-3.6499 -5.50293,-3.6499 -3.42529,0 -4.94141,2.41455 -1.51611,2.38647 -1.54419,7.35595 l 0,3.03223 z"
             style="font-style:normal;font-variant:normal;font-weight:normal;font-stretch:normal;font-size:57.5px;font-family:'Roboto Condensed';-inkscape-font-specification:'Roboto Condensed, '"
             id="path4695"
             inkscape:connector-curvature="0" />
          <path
             d="m 348.77225,513.724 q 0,-1.60034 -1.20728,-2.75147 -1.20727,-1.15112 -4.66064,-2.69531 -4.0149,-1.65649 -5.67139,-2.83569 -1.62842,-1.1792 -2.44263,-2.66724 -0.81421,-1.51611 -0.81421,-3.59375 0,-3.70605 2.69532,-6.14868 2.72339,-2.4707 6.93481,-2.4707 4.43604,0 7.13135,2.58301 2.69531,2.583 2.69531,6.62597 l -4.9414,0 q 0,-2.04956 -1.37574,-3.48144 -1.37573,-1.45996 -3.50952,-1.45996 -2.18994,0 -3.45337,1.15112 -1.23535,1.12305 -1.23535,3.03222 0,1.51612 0.89844,2.44263 0.92651,0.92652 4.40796,2.44263 5.531,2.16186 7.52441,4.2395 1.99341,2.04956 1.99341,5.22217 0,3.95874 -2.72339,6.34521 -2.72339,2.3584 -7.2998,2.3584 -4.74488,0 -7.69287,-2.72339 -2.948,-2.72339 -2.948,-6.90673 l 4.99756,0 q 0.0842,2.52685 1.54419,3.95874 1.45996,1.43188 4.09912,1.43188 2.4707,0 3.7622,-1.09497 1.29151,-1.12305 1.29151,-3.00415 z"
             style="font-style:normal;font-variant:normal;font-weight:normal;font-stretch:normal;font-size:57.5px;font-family:'Roboto Condensed';-inkscape-font-specification:'Roboto Condensed, '"
             id="path4697"
             inkscape:connector-curvature="0" />
        </g>
        <path
           inkscape:connector-curvature="0"
           id="path41863"
           style="font-style:normal;font-variant:normal;font-weight:normal;font-stretch:normal;font-size:medium;line-height:125%;font-family:'Roboto Condensed';-inkscape-font-specification:'Roboto Condensed, ';letter-spacing:0px;word-spacing:0px;fill:#000000;fill-opacity:1;stroke:none;stroke-width:1px;stroke-linecap:butt;stroke-linejoin:miter;stroke-opacity:1"
           d="m 750.93754,516.16344 0.0921,2.1552 q 1.89731,-2.52361 4.84459,-2.52361 5.28669,0 5.36037,7.05505 l 0,13.24434 -3.24201,0 0,-13.09697 q 0,-2.33941 -0.79208,-3.31569 -0.77366,-0.99471 -2.33941,-0.99471 -1.21575,0 -2.19203,0.8105 -0.95787,0.8105 -1.54733,2.11836 l 0,14.47851 -3.26042,0 0,-19.93098 3.07622,0 z" />
        <path
           inkscape:connector-curvature="0"
           id="path41865"
           style="font-style:normal;font-variant:normal;font-weight:normal;font-stretch:normal;font-size:medium;line-height:125%;font-family:'Roboto Condensed';-inkscape-font-specification:'Roboto Condensed, ';letter-spacing:0px;word-spacing:0px;fill:#000000;fill-opacity:1;stroke:none;stroke-width:1px;stroke-linecap:butt;stroke-linejoin:miter;stroke-opacity:1"
           d="m 765.45289,525.20791 q 0,-4.34724 2.09994,-6.87085 2.11836,-2.54203 5.58141,-2.54203 3.46305,0 5.56299,2.46835 2.11836,2.46835 2.17362,6.72348 l 0,2.09994 q 0,4.32881 -2.09994,6.85242 -2.09994,2.52361 -5.59983,2.52361 -3.46305,0 -5.56299,-2.44992 -2.08152,-2.44993 -2.1552,-6.63138 l 0,-2.17362 z m 3.26043,1.87889 q 0,3.07622 1.19733,4.84459 1.21575,1.74995 3.26043,1.74995 4.3104,0 4.43934,-6.22613 l 0,-2.2473 q 0,-3.05781 -1.21575,-4.82617 -1.21576,-1.78679 -3.26043,-1.78679 -2.00784,0 -3.22359,1.78679 -1.19733,1.76836 -1.19733,4.80775 l 0,1.89731 z" />
        <path
           inkscape:connector-curvature="0"
           id="path41867"
           style="font-style:normal;font-variant:normal;font-weight:normal;font-stretch:normal;font-size:medium;line-height:125%;font-family:'Roboto Condensed';-inkscape-font-specification:'Roboto Condensed, ';letter-spacing:0px;word-spacing:0px;fill:#000000;fill-opacity:1;stroke:none;stroke-width:1px;stroke-linecap:butt;stroke-linejoin:miter;stroke-opacity:1"
           d="m 789.34428,511.33727 0,4.82617 3.00254,0 0,2.63413 -3.00254,0 0,12.36016 q 0,1.17891 0.38683,1.78679 0.38683,0.60787 1.32628,0.60787 0.64471,0 1.30785,-0.22104 l -0.0368,2.76307 q -1.10523,0.36841 -2.26572,0.36841 -1.93415,0 -2.94728,-1.38154 -1.01313,-1.38153 -1.01313,-3.90514 l 0,-12.37858 -3.03938,0 0,-2.63413 3.03938,0 0,-4.82617 3.24201,0 z" />
        <path
           inkscape:connector-curvature="0"
           id="path41869"
           style="font-style:normal;font-variant:normal;font-weight:normal;font-stretch:normal;font-size:medium;line-height:125%;font-family:'Roboto Condensed';-inkscape-font-specification:'Roboto Condensed, ';letter-spacing:0px;word-spacing:0px;fill:#000000;fill-opacity:1;stroke:none;stroke-width:1px;stroke-linecap:butt;stroke-linejoin:miter;stroke-opacity:1"
           d="m 799.53082,518.20812 q 1.86047,-2.41309 4.75249,-2.41309 5.28668,0 5.36036,7.05505 l 0,13.24434 -3.24201,0 0,-13.09697 q 0,-2.33941 -0.79208,-3.31569 -0.77366,-0.99471 -2.3394,-0.99471 -1.21576,0 -2.19204,0.8105 -0.95787,0.8105 -1.54732,2.11836 l 0,14.47851 -3.26043,0 0,-28.29388 3.26043,0 0,10.40758 z" />
        <path
           inkscape:connector-curvature="0"
           id="path41871"
           style="font-style:normal;font-variant:normal;font-weight:normal;font-stretch:normal;font-size:medium;line-height:125%;font-family:'Roboto Condensed';-inkscape-font-specification:'Roboto Condensed, ';letter-spacing:0px;word-spacing:0px;fill:#000000;fill-opacity:1;stroke:none;stroke-width:1px;stroke-linecap:butt;stroke-linejoin:miter;stroke-opacity:1"
           d="m 817.98815,536.09442 -3.26043,0 0,-19.93098 3.26043,0 0,19.93098 z m 0.25789,-25.21766 q 0,0.82892 -0.46051,1.38154 -0.46052,0.55261 -1.39996,0.55261 -0.92103,0 -1.38154,-0.55261 -0.46051,-0.55262 -0.46051,-1.38154 0,-0.82892 0.46051,-1.39996 0.46051,-0.57103 1.38154,-0.57103 0.92102,0 1.38154,0.58945 0.47893,0.57104 0.47893,1.38154 z" />
        <path
           inkscape:connector-curvature="0"
           id="path41873"
           style="font-style:normal;font-variant:normal;font-weight:normal;font-stretch:normal;font-size:medium;line-height:125%;font-family:'Roboto Condensed';-inkscape-font-specification:'Roboto Condensed, ';letter-spacing:0px;word-spacing:0px;fill:#000000;fill-opacity:1;stroke:none;stroke-width:1px;stroke-linecap:butt;stroke-linejoin:miter;stroke-opacity:1"
           d="m 826.16686,516.16344 0.0921,2.1552 q 1.89731,-2.52361 4.84459,-2.52361 5.28668,0 5.36036,7.05505 l 0,13.24434 -3.242,0 0,-13.09697 q 0,-2.33941 -0.79208,-3.31569 -0.77367,-0.99471 -2.33941,-0.99471 -1.21575,0 -2.19204,0.8105 -0.95786,0.8105 -1.54732,2.11836 l 0,14.47851 -3.26043,0 0,-19.93098 3.07623,0 z" />
        <path
           inkscape:connector-curvature="0"
           id="path41875"
           style="font-style:normal;font-variant:normal;font-weight:normal;font-stretch:normal;font-size:medium;line-height:125%;font-family:'Roboto Condensed';-inkscape-font-specification:'Roboto Condensed, ';letter-spacing:0px;word-spacing:0px;fill:#000000;fill-opacity:1;stroke:none;stroke-width:1px;stroke-linecap:butt;stroke-linejoin:miter;stroke-opacity:1"
           d="m 840.71905,525.22633 q 0,-4.66039 1.69468,-7.03663 1.69469,-2.39467 4.95512,-2.39467 3.03938,0 4.62354,2.59729 l 0.16579,-2.22888 2.94728,0 0,20.11519 q 0,3.70252 -1.89731,5.67351 -1.89732,1.98941 -5.28669,1.98941 -1.47364,0 -3.31569,-0.73682 -1.82363,-0.7184 -2.74465,-1.78678 l 1.32627,-2.24731 q 2.02626,1.98942 4.47619,1.98942 4.07093,0 4.18145,-4.43934 l 0,-2.59729 q -1.58416,2.3394 -4.4946,2.3394 -3.09465,0 -4.82617,-2.32098 -1.73153,-2.3394 -1.80521,-6.70506 l 0,-2.21046 z m 3.26043,1.86047 q 0,3.35253 0.97628,4.93669 0.99471,1.56574 3.24201,1.56574 2.43151,0 3.64726,-2.48676 l 0,-9.96549 q -1.27102,-2.44993 -3.61042,-2.44993 -2.2473,0 -3.24201,1.58416 -0.9947,1.56575 -1.01312,4.82617 l 0,1.98942 z" />
        <path
           inkscape:connector-curvature="0"
           id="path41877"
           style="font-style:normal;font-variant:normal;font-weight:normal;font-stretch:normal;font-size:medium;line-height:125%;font-family:'Roboto Condensed';-inkscape-font-specification:'Roboto Condensed, ';letter-spacing:0px;word-spacing:0px;fill:#000000;fill-opacity:1;stroke:none;stroke-width:1px;stroke-linecap:butt;stroke-linejoin:miter;stroke-opacity:1"
           d="m 874.44698,527.0868 q 0,4.66038 -1.67626,7.01821 -1.67627,2.35782 -4.86301,2.35782 -3.16833,0 -4.75249,-2.72623 l -0.16579,2.35782 -2.9657,0 0,-28.29388 3.24201,0 0,10.55494 q 1.60258,-2.56045 4.60513,-2.56045 3.27884,0 4.91827,2.32098 1.63942,2.32099 1.65784,6.99979 l 0,1.971 z m -3.242,-1.86047 q 0,-3.53674 -0.99471,-5.0288 -0.97629,-1.51048 -3.18675,-1.51048 -2.52361,0 -3.75778,2.72623 l 0,9.48656 q 1.21575,2.68939 3.79462,2.68939 2.21046,0 3.16833,-1.54732 0.95787,-1.54732 0.97629,-4.80775 l 0,-2.00783 z" />
        <path
           inkscape:connector-curvature="0"
           id="path41879"
           style="font-style:normal;font-variant:normal;font-weight:normal;font-stretch:normal;font-size:medium;line-height:125%;font-family:'Roboto Condensed';-inkscape-font-specification:'Roboto Condensed, ';letter-spacing:0px;word-spacing:0px;fill:#000000;fill-opacity:1;stroke:none;stroke-width:1px;stroke-linecap:butt;stroke-linejoin:miter;stroke-opacity:1"
           d="m 888.81497,534.34447 q -1.62101,2.11836 -4.73407,2.11836 -2.70781,0 -4.08935,-1.86047 -1.38154,-1.87889 -1.39996,-5.45247 l 0,-12.98645 3.24201,0 0,12.74699 q 0,4.66038 2.79992,4.66038 2.9657,0 4.08935,-2.65255 l 0,-14.75482 3.26042,0 0,19.93098 -3.09464,0 -0.0737,-1.74995 z" />
        <path
           inkscape:connector-curvature="0"
           id="path41881"
           style="font-style:normal;font-variant:normal;font-weight:normal;font-stretch:normal;font-size:medium;line-height:125%;font-family:'Roboto Condensed';-inkscape-font-specification:'Roboto Condensed, ';letter-spacing:0px;word-spacing:0px;fill:#000000;fill-opacity:1;stroke:none;stroke-width:1px;stroke-linecap:butt;stroke-linejoin:miter;stroke-opacity:1"
           d="m 901.19354,511.33727 0,4.82617 3.00254,0 0,2.63413 -3.00254,0 0,12.36016 q 0,1.17891 0.38683,1.78679 0.38683,0.60787 1.32628,0.60787 0.64472,0 1.30785,-0.22104 l -0.0368,2.76307 q -1.10523,0.36841 -2.26572,0.36841 -1.93415,0 -2.94728,-1.38154 -1.01313,-1.38153 -1.01313,-3.90514 l 0,-12.37858 -3.03938,0 0,-2.63413 3.03938,0 0,-4.82617 3.24201,0 z" />
        <path
           inkscape:connector-curvature="0"
           id="path41883"
           style="font-style:normal;font-variant:normal;font-weight:normal;font-stretch:normal;font-size:medium;line-height:125%;font-family:'Roboto Condensed';-inkscape-font-specification:'Roboto Condensed, ';letter-spacing:0px;word-spacing:0px;fill:#000000;fill-opacity:1;stroke:none;stroke-width:1px;stroke-linecap:butt;stroke-linejoin:miter;stroke-opacity:1"
           d="m 918.37986,536.09442 q -0.29472,-0.64472 -0.42367,-2.17362 -1.73152,2.54203 -4.42092,2.54203 -2.70781,0 -4.23671,-1.51048 -1.51048,-1.5289 -1.51048,-4.29198 0,-3.03938 2.06309,-4.82617 2.0631,-1.78678 5.6551,-1.82363 l 2.39466,0 0,-2.11835 q 0,-1.78679 -0.79208,-2.54203 -0.79208,-0.75524 -2.41309,-0.75524 -1.47364,0 -2.39466,0.88418 -0.92102,0.86576 -0.92102,2.21046 l -3.26043,0 q 0,-1.5289 0.9026,-2.91044 0.90261,-1.39996 2.43151,-2.19204 1.5289,-0.79208 3.40779,-0.79208 3.0578,0 4.64196,1.5289 1.60259,1.51048 1.63943,4.42092 l 0,10.0576 q 0.0184,2.30256 0.6263,3.99724 l 0,0.29473 -3.38938,0 z m -4.34723,-2.59729 q 1.19733,0 2.28414,-0.66314 1.08681,-0.66313 1.58416,-1.65784 l 0,-4.75249 -1.84205,0 q -2.32098,0.0368 -3.66568,1.04997 -1.34469,0.9947 -1.34469,2.79991 0,1.69469 0.68155,2.46835 0.68156,0.75524 2.30257,0.75524 z" />
        <path
           inkscape:connector-curvature="0"
           id="path41885"
           style="font-style:normal;font-variant:normal;font-weight:normal;font-stretch:normal;font-size:medium;line-height:125%;font-family:'Roboto Condensed';-inkscape-font-specification:'Roboto Condensed, ';letter-spacing:0px;word-spacing:0px;fill:#000000;fill-opacity:1;stroke:none;stroke-width:1px;stroke-linecap:butt;stroke-linejoin:miter;stroke-opacity:1"
           d="m 925.49018,525.22633 q 0,-4.60513 1.71311,-7.01821 1.73153,-2.41309 4.95511,-2.41309 2.85518,0 4.45776,2.32098 l 0,-10.31547 3.26043,0 0,28.29388 -2.98412,0 -0.16578,-2.13678 q -1.60259,2.50519 -4.58671,2.50519 -3.09464,0 -4.86301,-2.39466 -1.74995,-2.41309 -1.78679,-6.79717 l 0,-2.04467 z m 3.26043,1.86047 q 0,3.35253 0.99471,4.93669 0.9947,1.56574 3.242,1.56574 2.43151,0 3.62884,-2.44992 l 0,-10.0576 q -1.25259,-2.39466 -3.61041,-2.39466 -2.24731,0 -3.24201,1.58416 -0.99471,1.56575 -1.01313,4.82617 l 0,1.98942 z" />
        <path
           inkscape:connector-curvature="0"
           id="path41887"
           style="font-style:normal;font-variant:normal;font-weight:normal;font-stretch:normal;font-size:medium;line-height:125%;font-family:'Roboto Condensed';-inkscape-font-specification:'Roboto Condensed, ';letter-spacing:0px;word-spacing:0px;fill:#000000;fill-opacity:1;stroke:none;stroke-width:1px;stroke-linecap:butt;stroke-linejoin:miter;stroke-opacity:1"
           d="m 954.57615,530.99194 q 0,-1.04997 -0.79208,-1.80521 -0.79209,-0.75524 -3.05781,-1.76836 -2.63413,-1.08681 -3.72094,-1.86047 -1.06839,-0.77366 -1.60258,-1.74995 -0.5342,-0.99471 -0.5342,-2.35783 0,-2.4315 1.76837,-4.03408 1.78679,-1.62101 4.54987,-1.62101 2.91043,0 4.6788,1.69469 1.76837,1.69468 1.76837,4.34724 l -3.24201,0 q 0,-1.3447 -0.9026,-2.28415 -0.90261,-0.95786 -2.30256,-0.95786 -1.4368,0 -2.26573,0.75524 -0.8105,0.73682 -0.8105,1.98941 0,0.99471 0.58946,1.60259 0.60788,0.60787 2.89202,1.60258 3.62884,1.41838 4.93669,2.78149 1.30786,1.3447 1.30786,3.42622 0,2.59729 -1.78679,4.16303 -1.78679,1.54732 -4.78933,1.54732 -3.11307,0 -5.04722,-1.78679 -1.93415,-1.78679 -1.93415,-4.53144 l 3.27885,0 q 0.0553,1.65785 1.01313,2.59729 0.95786,0.93945 2.68939,0.93945 1.621,0 2.46834,-0.7184 0.84735,-0.73682 0.84735,-1.971 z" />
        <path
           inkscape:connector-curvature="0"
           id="path41889"
           style="font-style:normal;font-variant:normal;font-weight:normal;font-stretch:normal;font-size:medium;line-height:125%;font-family:'Roboto Condensed';-inkscape-font-specification:'Roboto Condensed, ';letter-spacing:0px;word-spacing:0px;fill:#000000;fill-opacity:1;stroke:none;stroke-width:1px;stroke-linecap:butt;stroke-linejoin:miter;stroke-opacity:1"
           d="m 962.3496,534.30763 q 0,-0.88418 0.51578,-1.47364 0.53419,-0.58945 1.58416,-0.58945 1.04997,0 1.58416,0.58945 0.55262,0.58946 0.55262,1.47364 0,0.84735 -0.55262,1.41838 -0.53419,0.57104 -1.58416,0.57104 -1.04997,0 -1.58416,-0.57104 -0.51578,-0.57103 -0.51578,-1.41838 z" />
        <path
           inkscape:connector-curvature="0"
           id="path41891"
           style="font-style:normal;font-variant:normal;font-weight:normal;font-stretch:normal;font-size:medium;line-height:125%;font-family:'Roboto Condensed';-inkscape-font-specification:'Roboto Condensed, ';letter-spacing:0px;word-spacing:0px;fill:#000000;fill-opacity:1;stroke:none;stroke-width:1px;stroke-linecap:butt;stroke-linejoin:miter;stroke-opacity:1"
           d="m 976.34918,511.33727 0,4.82617 3.00254,0 0,2.63413 -3.00254,0 0,12.36016 q 0,1.17891 0.38683,1.78679 0.38683,0.60787 1.32628,0.60787 0.64471,0 1.30785,-0.22104 l -0.0368,2.76307 q -1.10523,0.36841 -2.26572,0.36841 -1.93415,0 -2.94728,-1.38154 -1.01313,-1.38153 -1.01313,-3.90514 l 0,-12.37858 -3.03938,0 0,-2.63413 3.03938,0 0,-4.82617 3.24201,0 z" />
        <path
           inkscape:connector-curvature="0"
           id="path41893"
           style="font-style:normal;font-variant:normal;font-weight:normal;font-stretch:normal;font-size:medium;line-height:125%;font-family:'Roboto Condensed';-inkscape-font-specification:'Roboto Condensed, ';letter-spacing:0px;word-spacing:0px;fill:#000000;fill-opacity:1;stroke:none;stroke-width:1px;stroke-linecap:butt;stroke-linejoin:miter;stroke-opacity:1"
           d="m 988.28566,526.97627 -1.73152,1.98942 0,7.12873 -3.26043,0 0,-28.29388 3.26043,0 0,16.92843 6.2077,-8.56553 3.90515,0 -6.33665,8.32607 7.16557,11.60491 -3.79462,0 -5.41563,-9.11815 z" />
        <path
           style="fill:none;fill-rule:evenodd;stroke:#d3d3d3;stroke-width:1.37871563;stroke-linecap:butt;stroke-linejoin:miter;stroke-miterlimit:4;stroke-dasharray:none;stroke-opacity:1"
           d="m 747.8613,497.75475 249.6346,0"
           id="path4168"
           inkscape:connector-curvature="0" />
      </g>
    </g>
  </g>
</svg>
