<?xml version="1.0" encoding="UTF-8" standalone="no"?>
<!-- Created with Inkscape (http://www.inkscape.org/) -->

<svg
   xmlns:dc="http://purl.org/dc/elements/1.1/"
   xmlns:cc="http://creativecommons.org/ns#"
   xmlns:rdf="http://www.w3.org/1999/02/22-rdf-syntax-ns#"
   xmlns:svg="http://www.w3.org/2000/svg"
   xmlns="http://www.w3.org/2000/svg"
   xmlns:sodipodi="http://sodipodi.sourceforge.net/DTD/sodipodi-0.dtd"
   xmlns:inkscape="http://www.inkscape.org/namespaces/inkscape"
   width="1400"
   height="250"
   viewBox="0 0 1400.0001 250"
   id="svg2"
   version="1.1"
   inkscape:version="0.91 r13725"
   sodipodi:docname="Logo Background Page.svg">
  <defs
     id="defs4" />
  <sodipodi:namedview
     id="base"
     pagecolor="#ffffff"
     bordercolor="#666666"
     borderopacity="1.0"
     inkscape:pageopacity="0.0"
     inkscape:pageshadow="2"
     inkscape:zoom="1.4142136"
     inkscape:cx="634.47044"
     inkscape:cy="154.1913"
     inkscape:document-units="px"
     inkscape:current-layer="layer1"
     showgrid="false"
     inkscape:window-width="1440"
     inkscape:window-height="855"
     inkscape:window-x="0"
     inkscape:window-y="1"
     inkscape:window-maximized="1"
     fit-margin-top="0"
     fit-margin-left="0"
     fit-margin-right="0"
     fit-margin-bottom="0"
     units="px"
     inkscape:snap-page="true" />
  <metadata
     id="metadata7">
    <rdf:RDF>
      <cc:Work
         rdf:about="">
        <dc:format>image/svg+xml</dc:format>
        <dc:type
           rdf:resource="http://purl.org/dc/dcmitype/StillImage" />
        <dc:title></dc:title>
      </cc:Work>
    </rdf:RDF>
  </metadata>
  <g
     inkscape:label="Layer 1"
     inkscape:groupmode="layer"
     id="layer1"
     transform="translate(-172.67856,-332.96902)">
    <g
       id="g4177"
       transform="matrix(1.3787155,0,0,1.3787155,509.78669,-259.80686)">
      <g
         transform="translate(0,3.4701344e-6)"
         id="g4170">
        <path
           style="opacity:1;fill:#ff0000;fill-opacity:1;stroke:none;stroke-opacity:1"
           d="m 0,0 0,83.927734 84.642578,0 L 84.642578,0 0,0 Z m 13.847656,20.691406 4.962891,0 15.78125,32.931641 0,-32.931641 4.910156,0 0,42.544922 -4.962891,0 -15.728515,-32.785156 0,32.785156 -4.962891,0 0,-42.544922 z m 34.207032,0 11.195312,0 c 3.578913,0 6.266,0.944398 8.064453,2.833985 1.816433,1.889585 2.724609,4.724726 2.724609,8.503906 0,1.986986 -0.457786,3.740307 -1.375,5.259765 -0.917205,1.51946 -2.158003,2.697504 -3.722656,3.535157 1.798453,0.584406 3.218619,1.782083 4.261719,3.59375 1.06108,1.811666 1.591797,3.994962 1.591797,6.546875 0,3.818132 -0.96979,6.818207 -2.91211,9 -1.924338,2.181785 -4.676946,3.271484 -8.255859,3.271484 l -11.572265,0 0,-42.544922 z m 4.935546,4.617188 0,13.529297 6.339844,0 c 1.708533,0 3.08386,-0.624354 4.126953,-1.871094 1.061087,-1.246733 1.591797,-2.901884 1.591797,-4.966797 0,-2.337633 -0.476507,-4.032052 -1.429687,-5.083984 C 62.665961,25.844602 61.210307,25.308594 59.25,25.308594 l -6.259766,0 z m 0,18.029297 0,15.310547 6.744141,0 c 1.870387,0 3.354119,-0.661669 4.451172,-1.986329 1.09706,-1.344138 1.646484,-3.223119 1.646484,-5.638671 0,-5.123307 -1.995721,-7.685547 -5.988281,-7.685547 l -6.853516,0 z"
           transform="translate(172.67856,458.25504)"
           id="rect4136"
           inkscape:connector-curvature="0" />
        <g
           style="font-style:normal;font-weight:normal;font-size:40px;line-height:125%;font-family:sans-serif;letter-spacing:0px;word-spacing:0px;fill:#000000;fill-opacity:1;stroke:none;stroke-width:1px;stroke-linecap:butt;stroke-linejoin:miter;stroke-opacity:1"
           id="text4144">
          <path
             d="m 292.11453,510.83215 -13.81347,0 -3.17261,10.66895 -5.27832,0 13.16772,-40.87891 4.40796,0 13.1958,40.87891 -5.27832,0 -3.22876,-10.66895 z m -12.46582,-4.43603 11.14624,0 -5.58716,-18.58643 -5.55908,18.58643 z"
             style="font-style:normal;font-variant:normal;font-weight:normal;font-stretch:normal;font-size:57.5px;font-family:'Roboto Condensed';-inkscape-font-specification:'Roboto Condensed, '"
             id="path4693"
             inkscape:connector-curvature="0" />
          <path
             d="m 304.43997,504.93616 q 0,-7.01905 2.61109,-10.69702 2.63916,-3.67798 7.55249,-3.67798 4.3518,0 6.79443,3.53759 l 0,-15.72265 4.96948,0 0,43.125 -4.54834,0 -0.25268,-3.25684 q -2.44263,3.81836 -6.99097,3.81836 -4.7168,0 -7.41211,-3.6499 -2.66724,-3.67798 -2.72339,-10.36011 l 0,-3.11645 z m 4.96948,2.83569 q 0,5.10986 1.51612,7.52441 1.51611,2.38648 4.9414,2.38648 3.70606,0 5.53101,-3.73413 l 0,-15.32959 q -1.90918,-3.6499 -5.50293,-3.6499 -3.42529,0 -4.94141,2.41455 -1.51611,2.38647 -1.54419,7.35595 l 0,3.03223 z"
             style="font-style:normal;font-variant:normal;font-weight:normal;font-stretch:normal;font-size:57.5px;font-family:'Roboto Condensed';-inkscape-font-specification:'Roboto Condensed, '"
             id="path4695"
             inkscape:connector-curvature="0" />
          <path
             d="m 348.77225,513.724 q 0,-1.60034 -1.20728,-2.75147 -1.20727,-1.15112 -4.66064,-2.69531 -4.0149,-1.65649 -5.67139,-2.83569 -1.62842,-1.1792 -2.44263,-2.66724 -0.81421,-1.51611 -0.81421,-3.59375 0,-3.70605 2.69532,-6.14868 2.72339,-2.4707 6.93481,-2.4707 4.43604,0 7.13135,2.58301 2.69531,2.583 2.69531,6.62597 l -4.9414,0 q 0,-2.04956 -1.37574,-3.48144 -1.37573,-1.45996 -3.50952,-1.45996 -2.18994,0 -3.45337,1.15112 -1.23535,1.12305 -1.23535,3.03222 0,1.51612 0.89844,2.44263 0.92651,0.92652 4.40796,2.44263 5.531,2.16186 7.52441,4.2395 1.99341,2.04956 1.99341,5.22217 0,3.95874 -2.72339,6.34521 -2.72339,2.3584 -7.2998,2.3584 -4.74488,0 -7.69287,-2.72339 -2.948,-2.72339 -2.948,-6.90673 l 4.99756,0 q 0.0842,2.52685 1.54419,3.95874 1.45996,1.43188 4.09912,1.43188 2.4707,0 3.7622,-1.09497 1.29151,-1.12305 1.29151,-3.00415 z"
             style="font-style:normal;font-variant:normal;font-weight:normal;font-stretch:normal;font-size:57.5px;font-family:'Roboto Condensed';-inkscape-font-specification:'Roboto Condensed, '"
             id="path4697"
             inkscape:connector-curvature="0" />
        </g>
      </g>
      <text
         sodipodi:linespacing="125%"
         id="text4164"
         y="577.2774"
         x="170.91496"
         style="font-style:normal;font-weight:normal;font-size:27.36255836px;line-height:125%;font-family:sans-serif;letter-spacing:0px;word-spacing:0px;fill:#000000;fill-opacity:1;stroke:none;stroke-width:1px;stroke-linecap:butt;stroke-linejoin:miter;stroke-opacity:1"
         xml:space="preserve"><tspan
           style="font-style:normal;font-variant:normal;font-weight:normal;font-stretch:normal;font-family:'Roboto Condensed';-inkscape-font-specification:'Roboto Condensed, '"
           y="577.2774"
           x="170.91496"
           id="tspan4166"
           sodipodi:role="line">nothingbutads.tk</tspan></text>
      <path
         inkscape:connector-curvature="0"
         id="path4168"
         d="m 172.67856,549.46913 181.06317,0"
         style="fill:none;fill-rule:evenodd;stroke:#d3d3d3;stroke-width:1.00000012;stroke-linecap:butt;stroke-linejoin:miter;stroke-miterlimit:4;stroke-dasharray:none;stroke-opacity:1" />
    </g>
    <circle
       style="opacity:1;fill:#d3d3d3;fill-opacity:1;stroke:none;stroke-width:1.00000012;stroke-miterlimit:4;stroke-dasharray:none;stroke-opacity:1"
       id="path4188"
       cx="164.13297"
       cy="328.32758"
       r="1.641498" />
  </g>
</svg>
